<svg width="221" height="254" fill="none" xmlns="http://www.w3.org/2000/svg">
    <path
        d="M72.041 144.912h-6.048v-23.664h6.048c3.904 0 6.832.976 8.784 2.928 1.952 1.952 2.928 4.912 2.928 8.88 0 1.984-.24 3.728-.72 5.232-.48 1.472-1.216 2.704-2.208 3.696-.96.96-2.176 1.696-3.648 2.208-1.44.48-3.152.72-5.136.72ZM110.284 139.536v1.056c0 1.12-.24 2.112-.72 2.976a5.54 5.54 0 0 1-1.968 2.064c-.8.48-1.728.72-2.784.72-1.312 0-2.336-.336-3.072-1.008-.736-.672-1.104-1.536-1.104-2.592 0-.832.24-1.472.72-1.92.512-.48 1.36-.816 2.544-1.008 1.184-.192 2.768-.288 4.752-.288h1.632ZM154.956 139.536v1.056c0 1.12-.24 2.112-.72 2.976a5.54 5.54 0 0 1-1.968 2.064c-.8.48-1.728.72-2.784.72-1.312 0-2.336-.336-3.072-1.008-.736-.672-1.104-1.536-1.104-2.592 0-.832.24-1.472.72-1.92.512-.48 1.36-.816 2.544-1.008 1.184-.192 2.768-.288 4.752-.288h1.632Z"
        fill="#0C71C3" />
    <path fill-rule="evenodd" clip-rule="evenodd"
        d="m42.653 233.715-22.158 18.432L.153 235.226V0h220.843v239.068l-15.724 13.079-22.157-18.432-24.819 20.645h-1.567l-24.819-20.645-22.157 18.432-22.16-18.432-22.47 18.692-22.47-18.692Zm97.804-172.412a7.5 7.5 0 1 0-10.607-10.606l-7.697 7.696-7.696-7.696a7.5 7.5 0 0 0-10.607 10.606L111.547 69l-7.697 7.697a7.5 7.5 0 1 0 10.607 10.606l7.696-7.696 7.697 7.696a7.5 7.5 0 0 0 10.607-10.606L132.76 69l7.697-7.697ZM62.729 85.384c-.928 0-1.648-.256-2.16-.768-.48-.512-.72-1.248-.72-2.208v-28.56c0-.992.24-1.744.72-2.256.512-.544 1.168-.816 1.968-.816.736 0 1.28.144 1.632.432.384.256.832.704 1.344 1.344L82.65 74.788V53.704c0-.928.24-1.648.72-2.16.512-.512 1.232-.768 2.16-.768.928 0 1.632.256 2.112.768.48.512.72 1.232.72 2.16v28.8c0 .896-.224 1.6-.672 2.112-.448.512-1.056.768-1.824.768-.736 0-1.328-.144-1.776-.432-.416-.288-.88-.752-1.392-1.392L65.561 61.265v21.143c0 .96-.24 1.696-.72 2.208-.48.512-1.184.768-2.112.768Zm-2.064 63.8c.576.544 1.392.816 2.448.816h9.312c2.848 0 5.36-.368 7.536-1.104 2.208-.768 4.064-1.872 5.568-3.312 1.536-1.44 2.688-3.2 3.456-5.28.8-2.112 1.2-4.528 1.2-7.248 0-5.44-1.552-9.616-4.656-12.528-3.072-2.912-7.44-4.368-13.104-4.368h-9.312c-1.056 0-1.872.288-2.448.864-.544.544-.816 1.344-.816 2.4v27.312c0 1.056.272 1.872.816 2.448Zm38.339.336c1.344.64 2.864.96 4.56.96 1.28 0 2.416-.224 3.408-.672.992-.448 1.808-1.072 2.448-1.872a6.424 6.424 0 0 0 .96-1.634v1.01c0 .992.24 1.76.72 2.304.512.512 1.216.768 2.112.768.896 0 1.584-.256 2.064-.768.48-.544.72-1.312.72-2.304v-11.52c0-2.24-.368-4.064-1.104-5.472-.736-1.44-1.856-2.512-3.36-3.216-1.472-.704-3.36-1.056-5.664-1.056-1.12 0-2.368.128-3.744.384-1.344.256-2.752.688-4.224 1.296-.608.224-1.04.576-1.296 1.056a2.77 2.77 0 0 0-.384 1.392c0 .48.128.928.384 1.344.256.384.608.64 1.056.768.48.128 1.024.048 1.632-.24 1.184-.544 2.304-.928 3.36-1.152 1.088-.224 2.096-.336 3.024-.336 1.664 0 2.848.352 3.552 1.056.704.704 1.056 1.856 1.056 3.456v1.008h-1.68c-3.392 0-6.096.224-8.112.672-2.016.448-3.472 1.184-4.368 2.208-.896.992-1.344 2.352-1.344 4.08 0 1.408.368 2.672 1.104 3.792.768 1.12 1.808 2.016 3.12 2.688Zm28.602-.096c1.408.704 3.152 1.056 5.232 1.056.512 0 1.104-.064 1.776-.192.672-.096 1.216-.208 1.632-.336.544-.192.912-.528 1.104-1.008.224-.512.336-1.088.336-1.728 0-.832-.128-1.376-.384-1.632a1.099 1.099 0 0 0-.96-.384c-.32.032-.688.096-1.104.192a6.445 6.445 0 0 1-1.44.144c-1.504 0-2.592-.384-3.264-1.152-.672-.768-1.008-1.92-1.008-3.456v-9.888h5.088c.768 0 1.36-.192 1.776-.576.416-.416.624-.976.624-1.68 0-.736-.208-1.296-.624-1.68-.416-.384-1.008-.576-1.776-.576h-5.088v-4.368c0-.992-.256-1.744-.768-2.256-.512-.512-1.248-.768-2.208-.768-.96 0-1.712.256-2.256.768-.512.512-.768 1.264-.768 2.256v4.368h-2.496c-.768 0-1.36.192-1.776.576-.416.384-.624.944-.624 1.68 0 .704.208 1.264.624 1.68.416.384 1.008.576 1.776.576h2.496v10.224c0 2.016.336 3.712 1.008 5.088.672 1.344 1.696 2.368 3.072 3.072Zm16.07.096c1.344.64 2.864.96 4.56.96 1.28 0 2.416-.224 3.408-.672.992-.448 1.808-1.072 2.448-1.872a6.424 6.424 0 0 0 .96-1.634v1.01c0 .992.24 1.76.72 2.304.512.512 1.216.768 2.112.768.896 0 1.584-.256 2.064-.768.48-.544.72-1.312.72-2.304v-11.52c0-2.24-.368-4.064-1.104-5.472-.736-1.44-1.856-2.512-3.36-3.216-1.472-.704-3.36-1.056-5.664-1.056-1.12 0-2.368.128-3.744.384-1.344.256-2.752.688-4.224 1.296-.608.224-1.04.576-1.296 1.056a2.77 2.77 0 0 0-.384 1.392c0 .48.128.928.384 1.344.256.384.608.64 1.056.768.48.128 1.024.048 1.632-.24 1.184-.544 2.304-.928 3.36-1.152 1.088-.224 2.096-.336 3.024-.336 1.664 0 2.848.352 3.552 1.056.704.704 1.056 1.856 1.056 3.456v1.008h-1.68c-3.392 0-6.096.224-8.112.672-2.016.448-3.472 1.184-4.368 2.208-.896.992-1.344 2.352-1.344 4.08 0 1.408.368 2.672 1.104 3.792.768 1.12 1.808 2.016 3.12 2.688Z"
        fill="#0C71C3" />
</svg>
