<svg width="20" height="20" viewBox="0 0 20 20" fill="none" xmlns="http://www.w3.org/2000/svg">
    <path
        d="M13.1826 18.704C12.9681 18.7045 12.7555 18.6625 12.5573 18.5805C12.3591 18.4984 12.179 18.378 12.0276 18.226L5.66258 11.8531C5.51089 11.7015 5.39055 11.5215 5.30844 11.3234C5.22634 11.1253 5.18408 10.913 5.18408 10.6985C5.18408 10.4841 5.22634 10.2718 5.30844 10.0737C5.39055 9.87557 5.51089 9.69559 5.66258 9.54403L12.0356 3.17803C12.3447 2.88616 12.7555 2.72635 13.1806 2.7326C13.6057 2.73884 14.0117 2.91065 14.3121 3.21148C14.6125 3.51231 14.7838 3.91844 14.7895 4.34356C14.7952 4.76868 14.6349 5.17927 14.3426 5.48803L9.12558 10.704L14.3376 15.921C14.5659 16.1493 14.7213 16.4402 14.7843 16.7569C14.8472 17.0736 14.8148 17.4018 14.6912 17.7C14.5675 17.9983 14.3582 18.2532 14.0897 18.4324C13.8211 18.6117 13.5055 18.7073 13.1826 18.7071V18.704Z"
        fill="#0C71C3" />
</svg>
