<svg width="74" height="70" viewBox="0 0 74 70" fill="none" xmlns="http://www.w3.org/2000/svg">
<path d="M8.51 36.1L17.05 50.87L13.37 50.8722C13.7684 56.3646 18.085 60.5 23.41 60.5H50.06C55.8793 60.5 60.62 55.8008 60.62 50.13C60.62 47.6447 62.6347 45.63 65.12 45.63C67.6053 45.63 69.62 47.6447 69.62 50.13C69.62 60.9192 60.7007 69.5 50.06 69.5H23.41C12.8294 69.5 4.77739 61.065 4.35724 50.8774L0 50.88L8.51 36.1Z" fill="white"/>
<path d="M12.96 20.05C12.96 14.2682 17.7122 9.5 23.41 9.5H50.06C55.6238 9.5 60.34 14.3204 60.34 20.25V20.5H56.43L64.95 35.27L73.48 20.5H69.34V20.25C69.34 9.71959 60.9562 0.5 50.06 0.5H23.41C12.6678 0.5 3.96 9.37182 3.96 20.05C3.96 22.5353 5.97472 24.55 8.46 24.55C10.9453 24.55 12.96 22.5353 12.96 20.05Z" fill="white"/>
</svg>
