<svg width="49" height="50" viewBox="0 0 49 50" fill="none" xmlns="http://www.w3.org/2000/svg">
    <path
        d="M6.62965 50H41.5185C45.1759 50 48.1482 47.0278 48.1482 43.3704V10.3333C48.1482 6.67588 45.1759 3.70363 41.5185 3.70363H38.8889V1.85182C38.8889 0.833287 38.0555 0 37.037 0C36.0184 0 35.1852 0.833287 35.1852 1.85182V3.70363H12.963V1.85182C12.963 0.833287 12.1296 0 11.1111 0C10.0925 0 9.25924 0.833287 9.25924 1.85182V3.70363H6.62965C2.97225 3.70363 0 6.67588 0 10.3333V43.3704C0 47.0278 2.97225 50 6.62965 50V50ZM3.70379 10.3333C3.70379 8.72222 5.01859 7.40742 6.62965 7.40742H9.25924V9.25924C9.25924 10.2778 10.0925 11.1111 11.1111 11.1111C12.1296 11.1111 12.9629 10.2778 12.9629 9.25924V7.40742H35.1852V9.25924C35.1852 10.2778 36.0184 11.1111 37.037 11.1111C38.0555 11.1111 38.8888 10.2778 38.8888 9.25924V7.40742H41.5184C43.1294 7.40742 44.4442 8.72222 44.4442 10.3333V15.7408H3.70379V10.3333ZM3.70379 19.4444H44.4445V43.3704C44.4445 44.9814 43.1298 46.2962 41.5187 46.2962H6.62965C5.01859 46.2962 3.70379 44.9814 3.70379 43.3704V19.4444Z"
        fill="white" />
</svg>
