<svg width="41" height="51" viewBox="0 0 41 51" fill="none" xmlns="http://www.w3.org/2000/svg">
    <path
        d="M40.5508 45.7134L40.5508 5.7134C40.5508 4.38731 40.024 3.11555 39.0863 2.17787C38.1486 1.24018 36.8769 0.713398 35.5508 0.713398L5.55078 0.713394C4.72198 0.713394 3.91439 0.91917 3.19633 1.30243C2.76549 1.53238 2.36688 1.82623 2.01525 2.17786C1.07756 3.11554 0.550781 4.38731 0.550781 5.71339V45.7134C0.550781 47.0395 1.07756 48.3112 2.01525 49.2489C2.95293 50.1866 4.2247 50.7134 5.55078 50.7134H35.5508C36.8769 50.7134 38.1486 50.1866 39.0863 49.2489C40.024 48.3112 40.5508 47.0395 40.5508 45.7134Z"
        fill="#0C71C3" />
    <path
        d="M13.6938 45.4006H8.43652V21.7427H13.6938V45.4006ZM24.2085 45.4006H18.9512V29.6287H24.2085V45.4006ZM34.7231 45.4006H29.4658V37.5146H34.7231V45.4006Z"
        fill="white" />
</svg>
