<svg width="100" height="101" viewBox="0 0 100 101" fill="none" xmlns="http://www.w3.org/2000/svg">
    <path
        d="M74.9996 0.651855H24.9996C11.1925 0.651855 -0.000366211 11.8447 -0.000366211 25.6519V75.6519C-0.000366211 89.459 11.1925 100.652 24.9996 100.652H74.9996C88.8068 100.652 99.9996 89.459 99.9996 75.6519V25.6519C99.9996 11.8447 88.8068 0.651855 74.9996 0.651855Z"
        fill="white" />
    <path
        d="M32.5552 75.6519H67.4441C71.1015 75.6519 74.0737 72.6796 74.0737 69.0222V35.9851C74.0737 32.3277 71.1015 29.3555 67.4441 29.3555H64.8145V27.5037C64.8145 26.4851 63.981 25.6519 62.9625 25.6519C61.944 25.6519 61.1107 26.4851 61.1107 27.5037V29.3555H38.8886V27.5037C38.8886 26.4851 38.0551 25.6519 37.0366 25.6519C36.0181 25.6519 35.1848 26.4851 35.1848 27.5037V29.3555H32.5552C28.8978 29.3555 25.9255 32.3277 25.9255 35.9851V69.0222C25.9255 72.6796 28.8978 75.6519 32.5552 75.6519ZM29.6293 35.9851C29.6293 34.3741 30.9441 33.0593 32.5552 33.0593H35.1848V34.9111C35.1848 35.9296 36.0181 36.7629 37.0366 36.7629C38.0551 36.7629 38.8884 35.9296 38.8884 34.9111V33.0593H61.1107V34.9111C61.1107 35.9296 61.944 36.7629 62.9625 36.7629C63.981 36.7629 64.8143 35.9296 64.8143 34.9111V33.0593H67.4439C69.055 33.0593 70.3698 34.3741 70.3698 35.9851V41.3926H29.6293V35.9851ZM29.6293 45.0962H70.3701V69.0222C70.3701 70.6333 69.0553 71.9481 67.4442 71.9481H32.5552C30.9441 71.9481 29.6293 70.6333 29.6293 69.0222V45.0962Z"
        fill="#0C71C3" />
</svg>
