<svg width="51" height="50" viewBox="0 0 51 50" fill="none" xmlns="http://www.w3.org/2000/svg">
    <path
        d="M44.58 50H34.33V45.156H42.736C43.5316 45.156 44.2947 44.8399 44.8573 44.2773C45.4199 43.7147 45.736 42.9516 45.736 42.156V33.611H50.58V44C50.5781 45.5907 49.9454 47.1158 48.8205 48.2406C47.6957 49.3654 46.1707 49.9981 44.58 50ZM16.83 50H6.57996C4.98923 49.9981 3.46418 49.3654 2.33936 48.2406C1.21454 47.1158 0.581809 45.5907 0.579956 44V33.611H5.42396V42.156C5.42396 42.9516 5.74003 43.7147 6.30264 44.2773C6.86524 44.8399 7.62831 45.156 8.42396 45.156H16.83V50ZM50.58 16.111H45.737V7.844C45.737 7.04835 45.4209 6.28529 44.8583 5.72268C44.2957 5.16007 43.5326 4.844 42.737 4.844H34.33V0H44.58C46.1707 0.00185261 47.6957 0.634589 48.8205 1.75941C49.9454 2.88422 50.5781 4.40927 50.58 6V16.11V16.111ZM5.42296 16.111H0.579956V6C0.581809 4.40927 1.21454 2.88422 2.33936 1.75941C3.46418 0.634589 4.98923 0.00185261 6.57996 0L16.83 0V4.844H8.42396C7.62831 4.844 6.86524 5.16007 6.30264 5.72268C5.74003 6.28529 5.42396 7.04835 5.42396 7.844V16.11L5.42296 16.111Z"
        fill="#0C71C3" />
    <path
        d="M30.4139 14.167H20.7469C17.4332 14.167 14.7469 16.8533 14.7469 20.167V29.834C14.7469 33.1477 17.4332 35.834 20.7469 35.834H30.4139C33.7277 35.834 36.4139 33.1477 36.4139 29.834V20.167C36.4139 16.8533 33.7277 14.167 30.4139 14.167Z"
        fill="#0C71C3" />
    <path
        d="M42.2469 23.333H8.91395C7.99329 23.333 7.24695 24.0791 7.24695 24.9995C7.24695 25.9199 7.99329 26.666 8.91395 26.666H42.2469C43.1676 26.666 43.9139 25.9199 43.9139 24.9995C43.9139 24.0791 43.1676 23.333 42.2469 23.333Z"
        fill="#0C71C3" />
</svg>
