<svg width="49" height="50" viewBox="0 0 49 50" fill="none" xmlns="http://www.w3.org/2000/svg">
    <path
        d="M7.13551 50H42.0244C45.6818 50 48.654 47.0278 48.654 43.3704V10.3333C48.654 6.67588 45.6818 3.70363 42.0244 3.70363H39.3948V1.85182C39.3948 0.833287 38.5614 0 37.5428 0C36.5243 0 35.691 0.833287 35.691 1.85182V3.70363H13.4689V1.85182C13.4689 0.833287 12.6355 0 11.6169 0C10.5984 0 9.7651 0.833287 9.7651 1.85182V3.70363H7.13551C3.47811 3.70363 0.505859 6.67588 0.505859 10.3333V43.3704C0.505859 47.0278 3.47811 50 7.13551 50ZM4.20965 10.3333C4.20965 8.72222 5.52445 7.40742 7.13551 7.40742H9.7651V9.25924C9.7651 10.2778 10.5984 11.1111 11.6169 11.1111C12.6355 11.1111 13.4687 10.2778 13.4687 9.25924V7.40742H35.691V9.25924C35.691 10.2778 36.5243 11.1111 37.5428 11.1111C38.5614 11.1111 39.3946 10.2778 39.3946 9.25924V7.40742H42.0242C43.6353 7.40742 44.9501 8.72222 44.9501 10.3333V15.7408H4.20965V10.3333ZM4.20965 19.4444H44.9504V43.3704C44.9504 44.9814 43.6356 46.2962 42.0245 46.2962H7.13551C5.52445 46.2962 4.20965 44.9814 4.20965 43.3704V19.4444Z"
        fill="#0C71C3" />
</svg>
