<svg width="35" height="50" viewBox="0 0 35 50" fill="none" xmlns="http://www.w3.org/2000/svg">
    <path
        d="M8.18594 50.0005C6.25709 50.0005 4.40724 49.2343 3.04334 47.8704C1.67944 46.5065 0.913208 44.6566 0.913208 42.7278V7.27322C0.913208 5.34437 1.67944 3.49452 3.04334 2.13062C4.40724 0.76672 6.25709 0.000488281 8.18594 0.000488281L26.9741 0.000488281C28.903 0.000488281 30.7528 0.76672 32.1167 2.13062C33.4806 3.49452 34.2468 5.34437 34.2468 7.27322V42.7278C34.2468 44.6566 33.4806 46.5065 32.1167 47.8704C30.7528 49.2343 28.903 50.0005 26.9741 50.0005H8.18594Z"
        fill="#0C71C3" />
    <path
        d="M27.8069 7.57594H7.35231C6.72471 7.57594 6.21594 8.08471 6.21594 8.71231C6.21594 9.3399 6.72471 9.84867 7.35231 9.84867H27.8069C28.4344 9.84867 28.9432 9.3399 28.9432 8.71231C28.9432 8.08471 28.4344 7.57594 27.8069 7.57594Z"
        fill="white" />
    <path
        d="M27.4278 20.455H7.7314C6.89443 20.455 6.21594 21.1333 6.21594 21.97C6.21594 22.8067 6.89443 23.485 7.7314 23.485H27.4278C28.2647 23.485 28.9432 22.8067 28.9432 21.97C28.9432 21.1333 28.2647 20.455 27.4278 20.455Z"
        fill="white" />
    <path
        d="M27.8069 34.0914H7.35231C6.72471 34.0914 6.21594 34.6002 6.21594 35.2278C6.21594 35.8554 6.72471 36.3641 7.35231 36.3641H27.8069C28.4344 36.3641 28.9432 35.8554 28.9432 35.2278C28.9432 34.6002 28.4344 34.0914 27.8069 34.0914Z"
        fill="white" />
    <path
        d="M27.4278 13.6369H7.7314C6.89443 13.6369 6.21594 14.3151 6.21594 15.1519C6.21594 15.9886 6.89443 16.6669 7.7314 16.6669H27.4278C28.2647 16.6669 28.9432 15.9886 28.9432 15.1519C28.9432 14.3151 28.2647 13.6369 27.4278 13.6369Z"
        fill="white" />
    <path
        d="M27.4278 27.2732H7.7314C6.89443 27.2732 6.21594 27.9515 6.21594 28.7882C6.21594 29.6249 6.89443 30.3032 7.7314 30.3032H27.4278C28.2647 30.3032 28.9432 29.6249 28.9432 28.7882C28.9432 27.9515 28.2647 27.2732 27.4278 27.2732Z"
        fill="white" />
    <path
        d="M27.8069 40.9096H7.35231C6.72471 40.9096 6.21594 41.4183 6.21594 42.0459C6.21594 42.6735 6.72471 43.1823 7.35231 43.1823H27.8069C28.4344 43.1823 28.9432 42.6735 28.9432 42.0459C28.9432 41.4183 28.4344 40.9096 27.8069 40.9096Z"
        fill="white" />
</svg>
