<svg width="42" height="68" viewBox="0 0 42 68" fill="none" xmlns="http://www.w3.org/2000/svg">
    <path
        d="M37.734 67.333L30.849 35.241C34.688 30.733 37.288 25.21 36.854 19.021C35.602 1.18701 10.777 5.11101 5.94901 14.111C1.12101 23.111 1.69301 45.944 7.93401 47.552C10.423 48.194 15.725 46.622 21.122 43.369L17.734 67.333H37.734Z"
        fill="#0C71C3" />
    <path
        d="M32.385 39.258C34.895 28.09 42.046 20.478 40.954 15.486C40.6148 14.0308 39.8981 12.6908 38.876 11.6009C37.8538 10.511 36.5625 9.70977 35.132 9.27801C35.132 9.27801 32.687 -0.618989 19.354 0.858011C6.02101 2.33501 -2.11999 7.87301 1.39901 20.058C4.62901 20.058 8.52901 18.89 13.921 20.891C16.488 21.844 17.592 26.799 17.592 26.799H20.029C20.029 26.799 23.577 20.918 27.029 22.477C30.481 24.036 28.597 30.05 28.597 30.05L29.797 39.257L32.385 39.258Z"
        fill="#FFE1E1" />
</svg>
