<svg fill="none" height="51" viewBox="0 0 50 51" width="50" xmlns="http://www.w3.org/2000/svg">
    <rect fill="#3c6e71" height="50" rx="8"  width="50" y=".264404" />
    <g fill="#ffd600">
        <path
            d="m25 11.2644c-2.7689 0-5.4757.8211-7.778 2.3594-2.3023 1.5384-4.0967 3.7249-5.1563 6.283-1.0596 2.5582-1.3369 5.3731-.7967 8.0889.5402 2.7157 1.8736 5.2103 3.8315 7.1682s4.4525 3.2913 7.1682 3.8315c2.7158.5402 5.5307.2629 8.0889-.7967 2.5581-1.0596 4.7446-2.854 6.283-5.1563 1.5383-2.3023 2.3594-5.0091 2.3594-7.778 0-3.713-1.475-7.274-4.1005-9.8995s-6.1865-4.1005-9.8995-4.1005zm0 26c-2.3734 0-4.6934-.7038-6.6668-2.0224-1.9734-1.3185-3.5115-3.1927-4.4197-5.3854-.9083-2.1927-1.1459-4.6055-.6829-6.9333s1.6059-4.4659 3.2841-6.1442c1.6783-1.6782 3.8165-2.8211 6.1442-3.2841 2.3278-.463 4.7406-.2254 6.9333.6828 2.1927.9083 4.0669 2.4464 5.3854 4.4198 1.3186 1.9734 2.0224 4.2934 2.0224 6.6668 0 3.1826-1.2643 6.2348-3.5147 8.4853-2.2504 2.2504-5.3027 3.5147-8.4853 3.5147z" />
        <path d="m24 17.2644h2v11h-2z" />
        <path
            d="m25 31.2644c-.2967 0-.5867.088-.8334.2528-.2466.1648-.4389.3991-.5524.6732-.1136.2741-.1433.5757-.0854.8666.0579.291.2008.5583.4105.7681.2098.2097.4771.3526.7681.4105.2909.0579.5925.0282.8666-.0854.2741-.1135.5084-.3058.6732-.5524.1648-.2467.2528-.5367.2528-.8334 0-.3978-.158-.7794-.4393-1.0607s-.6629-.4393-1.0607-.4393z" />
    </g>
</svg>