<svg width="100" height="100" viewBox="0 0 100 100" fill="none" xmlns="http://www.w3.org/2000/svg">
    <path
        d="M75 0H25C11.1929 0 0 11.1929 0 25V75C0 88.8071 11.1929 100 25 100H75C88.8071 100 100 88.8071 100 75V25C100 11.1929 88.8071 0 75 0Z"
        fill="white" />
    <path
        d="M71.0293 71.0293L71.0293 28.9707C71.0293 27.5764 70.4754 26.2392 69.4895 25.2532C68.5035 24.2673 67.1663 23.7134 65.772 23.7134L34.228 23.7134C33.3566 23.7134 32.5074 23.9298 31.7524 24.3327C31.2994 24.5745 30.8803 24.8835 30.5105 25.2532C29.5246 26.2392 28.9707 27.5764 28.9707 28.9707V71.0293C28.9707 72.4236 29.5246 73.7608 30.5105 74.7468C31.4965 75.7327 32.8337 76.2866 34.228 76.2866H65.772C67.1663 76.2866 68.5035 75.7327 69.4894 74.7468C70.4754 73.7608 71.0293 72.4236 71.0293 71.0293Z"
        fill="#0C71C3" />
    <path
        d="M42.114 68.4006H36.8567V44.7427H42.114V68.4006ZM52.6287 68.4006H47.3713V52.6287H52.6287V68.4006ZM63.1433 68.4006H57.886V60.5146H63.1433V68.4006Z"
        fill="white" />
</svg>
